<svg xmlns="http://www.w3.org/2000/svg" xmlns:xlink="http://www.w3.org/1999/xlink" version="1.1" x="0px" y="0px" viewBox="0 0 100 125" enable-background="new 0 0 100 100" xml:space="preserve"><g><path d="M47.121,35.283c0.693-0.541,1.347-0.739,2.001-0.604c0.03,0.006,0.061,0.011,0.091,0.014   c1.831,0.19,3.501,0.565,4.973,1.119c0.232,0.084,0.513,0.148,0.836,0.148c0.542,0,1.198-0.18,1.921-0.746   c0.399-0.312,0.47-0.888,0.158-1.287c-0.312-0.399-0.888-0.47-1.287-0.158c-0.597,0.466-0.902,0.355-0.992,0.323   c-0.852-0.32-1.765-0.585-2.729-0.795l1.469-0.946c0.098-0.063,0.157-0.171,0.158-0.287c0.001-0.116-0.058-0.225-0.155-0.289   l-0.425-0.279l2.607-1.93c0.153-0.113,0.185-0.328,0.072-0.481c-0.113-0.153-0.328-0.185-0.481-0.072l-3.003,2.223   c-0.09,0.067-0.142,0.174-0.139,0.286c0.003,0.112,0.061,0.216,0.155,0.278l0.395,0.26l-1.628,1.048   c-0.544-0.094-1.101-0.173-1.673-0.234c-1.179-0.229-2.341,0.095-3.453,0.964c-0.399,0.312-0.47,0.888-0.158,1.287   C46.146,35.524,46.722,35.595,47.121,35.283z"/><path d="M68.949,34.42c-0.175-0.118-0.385-0.172-0.596-0.153c-1.971,0.18-3.914,0.232-5.78,0.155l-0.666-0.351   c-0.448-0.236-1.002-0.064-1.239,0.384c-0.236,0.448-0.064,1.003,0.384,1.239l0.848,0.447c0.119,0.063,0.251,0.099,0.385,0.105   c1.878,0.087,3.831,0.048,5.812-0.115c0.118,0.152,0.296,0.419,0.536,0.875c0.164,0.312,0.483,0.49,0.812,0.49   c0.144,0,0.29-0.034,0.426-0.106c0.448-0.236,0.62-0.79,0.385-1.238C69.777,35.241,69.374,34.707,68.949,34.42z"/><path d="M61.674,37.847c0.29-0.127,0.422-0.465,0.295-0.755c-0.127-0.29-0.465-0.422-0.755-0.295   c-1.135,0.497-1.807,1.308-1.997,2.411c-0.006,0.032-0.008,0.064-0.008,0.097v7.507c0,0.317,0.257,0.573,0.573,0.573   s0.573-0.257,0.573-0.573v-7.455C60.488,38.672,60.92,38.178,61.674,37.847z"/><path d="M61.066,45.521c-0.27,0.164-0.356,0.517-0.192,0.787c0.197,0.325,0.357,0.786-0.163,1.478   c-0.19,0.253-0.139,0.612,0.114,0.802c0.103,0.078,0.224,0.115,0.344,0.115c0.174,0,0.346-0.079,0.458-0.229   c0.871-1.158,0.604-2.142,0.226-2.763C61.689,45.442,61.336,45.356,61.066,45.521z"/><path d="M57.98,59.633c0.295,1.087,0.289,2.335-0.017,3.708c-0.069,0.309,0.126,0.615,0.434,0.684   c0.31,0.067,0.615-0.126,0.684-0.435c0.319-1.432,0.346-2.759,0.081-3.95c0.071-0.047,0.147-0.079,0.209-0.068   c0.072,0.013,0.456,0.141,0.996,1.422c0.076,0.181,0.241,0.311,0.435,0.343c0.195,0.032,0.391-0.038,0.522-0.185l1.618-1.824   c0.946-1.075,1.375-2.043,1.314-2.958c-0.047-0.702-0.388-1.333-1.013-1.876c-0.032-0.027-0.066-0.051-0.103-0.071l-3.301-1.788   c-0.087-0.047-0.186-0.068-0.283-0.069c-1.826,0.034-3.717-0.148-5.628-0.538c-0.1-0.02-0.203-0.014-0.299,0.019l-2.968,1.008   c-0.042,0.014-0.082,0.033-0.12,0.057c-1.133,0.709-1.935,1.663-2.386,2.836c-0.051,0.132-0.051,0.279,0,0.411l0.688,1.788   c0.066,0.172,0.212,0.302,0.39,0.349c0.178,0.047,0.369,0.004,0.511-0.114c0.23-0.19,0.431-0.284,0.527-0.246   c0.06,0.025,0.597,0.316,0.863,2.923c0.025,0.244,0.202,0.445,0.441,0.5c0.239,0.055,0.487-0.048,0.616-0.257   c0.485-0.782,0.89-1.345,1.225-1.75c-0.132,0.479-0.243,0.977-0.334,1.493c-0.279,1.597-0.134,3.087,0.432,4.43   c0.092,0.219,0.305,0.351,0.528,0.351c0.074,0,0.15-0.015,0.222-0.045c0.292-0.123,0.428-0.459,0.306-0.751   c-0.479-1.137-0.6-2.411-0.359-3.787c0.197-1.119,0.498-2.145,0.894-3.048c0,0,0-0.001,0.001-0.002   c0.061-0.139,0.125-0.277,0.192-0.413h1.886L57.98,59.633z M54.946,56.634c-0.212,0-0.406,0.117-0.506,0.303   c-0.095,0.177-0.186,0.359-0.272,0.544c-0.631,0.231-1.321,0.87-2.115,1.96c-0.276-1.358-0.709-2.105-1.351-2.367   c-0.248-0.101-0.6-0.155-1.038,0.021l-0.36-0.936c0.366-0.837,0.952-1.507,1.787-2.042l2.758-0.937   c1.889,0.376,3.76,0.553,5.574,0.533l3.111,1.685c0.362,0.328,0.551,0.671,0.576,1.048c0.039,0.587-0.307,1.301-1.029,2.122   l-1.046,1.179c-0.441-0.787-0.916-1.207-1.464-1.305c-0.069-0.012-0.145-0.02-0.227-0.02c-0.171,0-0.368,0.034-0.581,0.131   l-0.678-1.574c-0.09-0.21-0.297-0.346-0.526-0.346H54.946z"/><path d="M90.396,74.418c-5.421-3.687-11.379-6.757-17.712-9.126l-3.874-4.225l-0.872-2.472c0.89-1.637,1.615-3.644,2.156-5.968   c0.002-0.009,0.004-0.018,0.006-0.028c0.265-1.463,0.484-2.921,0.65-4.34c3.214-2.758,4.786-5.238,4.803-7.577   c0.014-3.527,0.176-7.059,0.479-10.496c0.315-3.553-0.161-6.739-1.414-9.469c-2.432-5.317-6.805-8.42-13.001-9.224   c-4.453-0.551-8.041,0.769-10.669,3.922c-6.818,0.816-10.297,5.246-10.34,13.175c-0.614,2.249-0.698,4.778-0.251,7.518   c0.427,2.607,0.124,5.881-0.899,9.731c-0.062,0.234,0.029,0.482,0.229,0.619c0.114,0.078,0.248,0.111,0.379,0.098   c-0.306,1.41-0.925,2.735-1.852,3.954c-0.133,0.175-0.154,0.41-0.055,0.606c0.098,0.193,0.295,0.314,0.511,0.314   c0.004,0,0.007,0,0.011,0c0.724-0.013,1.443-0.278,2.147-0.789c0.276,1.47,0.777,3.006,1.497,4.582l-1.108,2.166   c-1.272,1.484-2.397,3.151-3.346,4.959c-5.434,3.487-10.942,6.56-16.37,9.134c-4.876,2.255-8.943,4.839-12.086,7.682   c-0.235,0.212-0.253,0.575-0.041,0.809c0.212,0.235,0.575,0.253,0.809,0.041c3.058-2.766,7.027-5.286,11.804-7.495   c4.959-2.352,9.98-5.115,14.95-8.224c-1.078,2.474-1.893,5.232-2.431,8.224c-0.028,0.153,0.008,0.311,0.1,0.437   c0.091,0.126,0.23,0.21,0.384,0.232l4.059,0.579l-5.051,4.357c-0.205,0.177-0.258,0.473-0.128,0.71l5.576,10.143   c0.152,0.277,0.501,0.379,0.778,0.226c0.277-0.152,0.379-0.501,0.226-0.778l-5.352-9.736l5.654-4.877   c0.17-0.147,0.239-0.379,0.176-0.595c-0.063-0.216-0.247-0.375-0.469-0.406l-4.714-0.672c0.66-3.398,1.693-6.466,3.073-9.127   c0,0,0-0.001,0.001-0.001c0.778-1.502,1.681-2.902,2.692-4.176c2.745,7.183,5.726,14.295,8.868,21.155   c0,0.001,0.001,0.001,0.001,0.002c0.484,1.056,0.979,2.125,1.474,3.178c0.911,1.936,1.85,3.883,2.79,5.786   c0.14,0.284,0.484,0.4,0.768,0.26c0.284-0.14,0.4-0.484,0.26-0.768c-0.937-1.897-1.872-3.837-2.78-5.766   c-0.441-0.938-0.883-1.889-1.316-2.832c1.5-1.748,2.674-3.802,3.498-6.121l3.155,3.809c0.154,0.186,0.409,0.255,0.635,0.174   c0.1-0.036,0.2-0.071,0.3-0.105c0.447,2.348,0.535,4.662,0.261,6.887c-0.155,1.258-0.182,2.687-0.077,4.246   c0.021,0.316,0.3,0.555,0.61,0.534c0.316-0.021,0.555-0.294,0.534-0.61c-0.099-1.487-0.075-2.842,0.072-4.029   c0.293-2.381,0.194-4.855-0.296-7.361c0.927-0.248,1.819-0.396,2.661-0.442c0.399,1.866,1.228,3.655,2.468,5.324   c1.527,2.058,2.896,4.344,4.069,6.794c0.099,0.206,0.304,0.326,0.517,0.326c0.083,0,0.167-0.018,0.247-0.056   c0.285-0.137,0.406-0.479,0.269-0.764c-1.205-2.516-2.612-4.865-4.183-6.982c-1.087-1.462-1.829-3.019-2.213-4.636   c0.06,0.004,0.121,0.008,0.18,0.013c0.201,0.017,0.392-0.071,0.51-0.232c0.669-0.909,1.064-2.073,1.182-3.472   c1.496,1.915,3.02,4.162,4.543,6.703c0.159,2.903,0.229,5.879,0.209,8.849c-0.002,0.316,0.253,0.575,0.569,0.577   c0.001,0,0.002,0,0.004,0c0.315,0,0.571-0.254,0.573-0.569c0.021-3.037-0.053-6.082-0.218-9.05c0-0.008-0.001-0.016-0.001-0.024   c-0.299-5.265-0.899-10.491-1.784-15.533c-0.005-0.031-0.013-0.062-0.024-0.092l-0.066-0.187l2.152,2.347   c0,0,0.001,0.001,0.001,0.001l3.764,4.105l-0.531,0.87c-0.145,0.237-0.099,0.544,0.109,0.728l5.238,4.63   c0.237,0.21,0.599,0.188,0.809-0.05c0.21-0.237,0.187-0.599-0.05-0.809l-4.878-4.312l0.506-0.828   c0.133-0.218,0.106-0.498-0.066-0.686l-2.395-2.612c5.445,2.207,10.586,4.946,15.312,8.16c0.262,0.178,0.618,0.11,0.796-0.152   C90.726,74.952,90.658,74.596,90.396,74.418z M70.046,41.975c-0.003,0.008-0.005,0.016-0.008,0.025   c-0.503,1.665-1.233,3.448-2.172,5.301c-0.765,1.524-1.425,3.153-1.968,4.854c-2.183-1.529-4.147-2.648-5.844-3.329   c-0.069-0.028-0.141-0.041-0.214-0.041c-0.087,0-0.174,0.02-0.254,0.06c-1.057,0.524-1.993,0.582-2.852,0.182   c-0.6-0.293-1.141-0.663-1.608-1.102c-0.006-0.006-0.013-0.012-0.019-0.018c-0.427-0.401-0.803-0.87-1.121-1.397   c0.21-0.475,0.547-0.753,1.045-0.868c0.308-0.071,0.5-0.379,0.429-0.688c-0.071-0.308-0.38-0.5-0.688-0.429   c-0.963,0.223-1.642,0.867-1.963,1.861c-0.049,0.151-0.033,0.316,0.044,0.454c0.254,0.458,0.546,0.883,0.871,1.269   c-2.119,0.85-4.262,1.862-6.39,3.018l-0.596-2.553c-0.041-0.175-0.161-0.32-0.325-0.393c-0.164-0.073-0.353-0.065-0.51,0.022   l-0.48,0.265v-1.631c0-0.24-0.15-0.455-0.375-0.538c-0.226-0.083-0.479-0.017-0.634,0.166l-0.391,0.459l-0.384-6.753   c0.295-1.083,0.572-2.313,0.823-3.658c0.942-5.049,3.168-8.134,6.802-9.433c2.302-0.814,4.513-0.709,6.758,0.32   c0.023,0.011,0.047,0.02,0.072,0.029c0,0,0.001,0,0.001,0c0.006,0.002,0.012,0.004,0.019,0.006c0,0,0,0,0,0c0,0,0.001,0,0.001,0   c0.133,0.037,0.268,0.025,0.386-0.027c0,0,0.001,0,0.002-0.001c0.009-0.004,0.019-0.009,0.028-0.013   c1.916-0.977,4.389-1.054,7.351-0.228c2.894,0.806,4.522,3.45,4.976,8.082C71.055,37.275,70.782,39.539,70.046,41.975z    M40.71,49.246c-0.219,0.211-0.436,0.391-0.652,0.538c0.385-0.692,0.69-1.411,0.914-2.153   C40.898,48.187,40.811,48.726,40.71,49.246z M41.329,43.27c-0.06,0.125-0.12,0.246-0.181,0.363c0.582-2.951,0.697-5.536,0.341-7.71   c-0.413-2.527-0.348-4.851,0.193-6.911c1.559-1.163,2.934-2.615,4.088-4.319c1.075-1.588,2.381-2.581,3.88-2.951   c0.307-0.076,0.495-0.386,0.419-0.694c-0.076-0.307-0.387-0.495-0.694-0.419c-1.784,0.44-3.316,1.591-4.555,3.421   c-0.882,1.303-1.9,2.447-3.035,3.414c0.336-6.584,3.348-10.155,9.178-10.895l1.656,2.456c0,0,0,0,0,0.001l2.359,3.49   c-3.471-0.717-6.605,0.707-9.335,4.245c-0.193,0.251-0.147,0.61,0.104,0.804c0.251,0.193,0.611,0.147,0.804-0.104   c2.787-3.611,5.87-4.749,9.421-3.475l0.802,1.188c0.108,0.16,0.294,0.251,0.481,0.252c0.193-0.002,0.371-0.101,0.476-0.263   c1.837-2.855,4.238-4.205,7.337-4.121c3.133,0.082,5.48,1.213,7.174,3.457c0.191,0.253,0.55,0.303,0.802,0.112   c0.253-0.191,0.303-0.55,0.112-0.803c-1.891-2.506-4.602-3.822-8.058-3.912c-3.211-0.084-5.851,1.239-7.844,3.94l-0.431-0.639   c-0.003-0.004-0.006-0.009-0.009-0.013l-3.002-4.442c0.984-1.116,2.144-1.894,3.453-2.318c0.301-0.097,0.466-0.42,0.369-0.722   c-0.098-0.301-0.421-0.466-0.722-0.369c-1.42,0.459-2.682,1.275-3.76,2.43l-1.193-1.769c2.377-2.761,5.495-3.862,9.514-3.364   c5.855,0.76,9.814,3.561,12.103,8.564c1.169,2.548,1.611,5.539,1.314,8.891c-0.306,3.469-0.469,7.033-0.483,10.59   c-0.013,1.74-1.182,3.715-3.481,5.884c0.132-1.462,0.211-2.909,0.236-4.318c0.765-2.556,1.047-4.947,0.835-7.108   c-0.499-5.087-2.453-8.14-5.809-9.075c-2.604-0.726-4.889-0.802-6.817-0.231c0.719-1.13,1.892-1.852,3.554-2.192   c3.122-0.653,5.896,0.482,8.481,3.47c0.207,0.239,0.569,0.266,0.808,0.059c0.239-0.207,0.266-0.569,0.058-0.808   c-2.841-3.285-6.065-4.578-9.58-3.843c-2.369,0.485-3.966,1.695-4.757,3.601c-2.316-0.916-4.687-0.956-7.057-0.118   c-3.998,1.428-6.536,4.894-7.545,10.303c-0.252,1.351-0.529,2.579-0.825,3.652c0,0.001-0.001,0.002-0.001,0.003   c-0.357,1.301-0.75,2.409-1.169,3.293C41.336,43.256,41.332,43.263,41.329,43.27z M54.306,72.4   C54.305,72.4,54.305,72.401,54.306,72.4c-0.726,2.392-1.82,4.505-3.258,6.293c-3.093-6.8-6.026-13.842-8.724-20.947l0.635-1.241   c0.034,0.064,0.068,0.128,0.102,0.193c0.037,0.069,0.087,0.13,0.149,0.178l1.721,1.37l0.266,2.45   c0.014,0.127,0.07,0.246,0.159,0.337c0.913,0.941,1.737,1.554,2.521,1.873c0.07,0.029,0.142,0.042,0.214,0.043   c0.605,1.67,1.677,3.094,3.209,4.258c0.403,0.764,0.956,1.38,1.647,1.836c0.224,0.815,0.581,1.355,1.088,1.646   c0.207,0.118,0.43,0.19,0.669,0.214C54.583,71.416,54.451,71.917,54.306,72.4z M55.247,69.706   c-0.406,0.125-0.585,0.022-0.644-0.011c-0.254-0.146-0.461-0.541-0.6-1.143c-0.035-0.154-0.132-0.286-0.267-0.366   c-0.639-0.377-1.12-0.901-1.469-1.602c-0.003-0.006-0.006-0.012-0.009-0.018c-0.289-0.591-0.48-1.434-0.568-2.506   c-0.026-0.315-0.304-0.549-0.618-0.524c-0.315,0.026-0.55,0.303-0.524,0.618c0.027,0.321,0.061,0.624,0.105,0.908   c-1.458-1.647-2.111-3.699-1.987-6.222c0.015-0.316-0.228-0.585-0.544-0.6c-0.324-0.018-0.585,0.228-0.6,0.544   c-0.047,0.967,0.012,1.881,0.178,2.74c-0.429-0.273-0.892-0.657-1.384-1.15l-0.271-2.487c0-0.001,0-0.002,0-0.003l-0.487-4.487   c-0.034-0.315-0.316-0.542-0.632-0.508c-0.315,0.034-0.542,0.317-0.508,0.631l0.339,3.122l-0.74-0.589   c-0.188-0.356-0.367-0.712-0.532-1.059c-0.001-0.003-0.003-0.006-0.004-0.009c-0.893-1.897-1.451-3.725-1.661-5.436   c0.349-1.779,0.552-3.766,0.604-5.911c0.079-0.171,0.158-0.35,0.235-0.535l0.302,5.31c0.013,0.234,0.168,0.436,0.39,0.511   c0.222,0.075,0.467,0.007,0.619-0.172l0.309-0.362v1.045c0,0.203,0.107,0.39,0.282,0.493c0.174,0.103,0.391,0.106,0.568,0.008   l0.667-0.368l0.596,2.552c0.041,0.175,0.162,0.321,0.326,0.394c0.165,0.073,0.354,0.064,0.511-0.024   c2.456-1.37,4.935-2.547,7.376-3.501c0.487,0.416,1.035,0.773,1.639,1.068c1.118,0.52,2.333,0.494,3.615-0.077   c1.729,0.726,3.753,1.923,6.021,3.563c0.151,0.109,0.345,0.138,0.521,0.078c0.176-0.06,0.312-0.202,0.364-0.38   c0.564-1.912,1.28-3.739,2.128-5.427c0.344-0.679,0.661-1.35,0.951-2.01c-0.055,0.696-0.123,1.396-0.203,2.099c0,0,0,0,0,0   c-0.166,1.459-0.388,2.965-0.662,4.476c-0.541,2.322-1.267,4.299-2.161,5.879c0,0.001-0.001,0.002-0.001,0.002   c-0.422,0.753-0.892,1.431-1.396,2.015c-1.08,1.254-2.229,2.592-3.433,3.999c0.081-0.582,0.123-1.215,0.125-1.898   c0.001-0.317-0.254-0.574-0.571-0.575c-0.001,0-0.002,0-0.002,0c-0.315,0-0.572,0.255-0.573,0.571   c-0.007,1.828-0.309,3.225-0.897,4.154c0,0.001-0.001,0.001-0.001,0.002l-0.036,0.057c-0.471,0.728-1.098,1.333-1.875,1.808   c0.263-0.475,0.464-0.97,0.6-1.481c0.081-0.306-0.101-0.62-0.406-0.701c-0.305-0.082-0.62,0.1-0.701,0.406   c-0.26,0.975-0.812,1.888-1.641,2.713c-0.272,0.175-0.52,0.299-0.739,0.368C55.26,69.702,55.253,69.704,55.247,69.706z    M64.044,75.685c-0.211-0.011-0.425-0.016-0.639-0.014c-0.007,0-0.014,0-0.021,0c-1.232,0.011-2.561,0.23-3.944,0.647   c-0.003,0.001-0.006,0.002-0.008,0.002c-0.189,0.056-0.38,0.116-0.573,0.18l-3.369-4.067c0.163-0.569,0.309-1.158,0.435-1.759   c0.218-0.094,0.446-0.217,0.683-0.368c1.749-0.516,3.116-1.407,4.07-2.653c1.373,1.083,2.777,2.466,4.18,4.118   C64.923,73.404,64.649,74.717,64.044,75.685z M70.362,77.412c-1.512-2.379-3.021-4.467-4.5-6.228   c-0.001-0.001-0.001-0.001-0.002-0.002c-1.498-1.781-3.003-3.27-4.481-4.435c1.745-2.043,3.394-3.966,4.906-5.721   c0.308-0.357,0.605-0.746,0.886-1.162l0.598,1.694c0,0,0,0,0,0.001l0.982,2.786C69.495,68.597,70.036,72.983,70.362,77.412z"/><path d="M58.649,55.666c0.294,0,0.544-0.225,0.57-0.523c0.028-0.315-0.205-0.593-0.52-0.621l-4.355-0.384   c-0.315-0.028-0.593,0.205-0.621,0.52c-0.028,0.315,0.205,0.593,0.52,0.621l4.355,0.384C58.615,55.665,58.632,55.666,58.649,55.666   z"/><path d="M47.747,38.401c-0.954,1.288-1.714,2.674-2.258,4.118c-0.067,0.178,0.023,0.376,0.201,0.443   c0.04,0.015,0.081,0.022,0.121,0.022c0.139,0,0.27-0.085,0.322-0.223c0.521-1.385,1.25-2.714,2.166-3.951   c0.113-0.153,0.081-0.368-0.071-0.481C48.076,38.217,47.86,38.249,47.747,38.401z"/><path d="M68.038,37.876c-1.85-0.652-3.819-0.561-5.851,0.272c-0.234,0.096-0.346,0.364-0.25,0.598   c0.073,0.177,0.244,0.285,0.424,0.285c0.058,0,0.117-0.011,0.174-0.034c0.371-0.152,0.738-0.275,1.103-0.372   c0.094,0.312,0.246,0.576,0.465,0.784c0.321,0.329,0.711,0.493,1.169,0.493s0.852-0.164,1.18-0.493   c0.258-0.252,0.41-0.552,0.461-0.897c0.276,0.059,0.549,0.134,0.819,0.229c0.238,0.084,0.501-0.041,0.585-0.28   C68.402,38.222,68.277,37.96,68.038,37.876z"/><path d="M57.115,37.721c-0.297,0.18-0.772,0.358-1.467-0.167c-2.561-1.957-5.282-2.27-8.086-0.932   c-0.229,0.109-0.325,0.383-0.216,0.611c0.109,0.229,0.383,0.325,0.611,0.216c0.622-0.297,1.233-0.503,1.836-0.618   c-0.001,0.023-0.005,0.044-0.005,0.067c0,0.458,0.16,0.844,0.481,1.158c0.329,0.329,0.722,0.493,1.18,0.493   s0.848-0.164,1.169-0.493c0.247-0.236,0.413-0.539,0.502-0.906c0.662,0.26,1.319,0.635,1.972,1.134   c0.523,0.395,1.005,0.536,1.426,0.536c0.426,0,0.79-0.144,1.071-0.314c0.217-0.131,0.286-0.413,0.155-0.63   C57.614,37.659,57.332,37.59,57.115,37.721z"/></g><text x="0" y="115" fill="#000000" font-size="5px" font-weight="bold" font-family="'Helvetica Neue', Helvetica, Arial-Unicode, Arial, Sans-serif">Created by Zeta Icons</text><text x="0" y="120" fill="#000000" font-size="5px" font-weight="bold" font-family="'Helvetica Neue', Helvetica, Arial-Unicode, Arial, Sans-serif">from the Noun Project</text></svg>